<?xml version="1.0" encoding="UTF-8"?>
<svg width="217px" height="220px" viewBox="0 0 217 220" version="1.1" xmlns="http://www.w3.org/2000/svg" xmlns:xlink="http://www.w3.org/1999/xlink">
    <!-- Generator: Sketch 50 (54983) - http://www.bohemiancoding.com/sketch -->
    <title>graphic/members-overview</title>
    <desc>Created with Sketch.</desc>
    <defs>
        <polygon id="path-1" points="0.227802115 0.50619469 145.99008 0.50619469 145.99008 177.674726 0.227802115 177.674726"></polygon>
    </defs>
    <g id="2_Member_Overview+Registration(Slicing)_" stroke="none" stroke-width="1" fill="none" fill-rule="evenodd">
        <g id="Member_Overview_Tab1" transform="translate(-238.000000, -698.000000)">
            <g id="BodyCopy" transform="translate(0.000000, 643.000000)">
                <g id="graphic/members-overview" transform="translate(146.000000, 45.000000)">
                    <g id="Group" transform="translate(92.000000, 10.000000)">
                        <path d="M107.222421,196.848147 C107.222421,200.24744 101.986567,203.003605 95.5270922,203.003605 C89.0682654,203.003605 83.8324116,200.24744 83.8324116,196.848147 C83.8324116,193.448855 89.0682654,190.69269 95.5270922,190.69269 C101.986567,190.69269 107.222421,193.448855 107.222421,196.848147" id="Fill-1" fill="#2E3191"></path>
                        <path d="M43.0624516,119.719847 C43.0624516,123.466336 38.512577,126.460673 32.8997263,126.407457 C27.2868755,126.354242 22.7363531,123.273593 22.7363531,119.527103 C22.7363531,115.780614 27.2868755,112.786277 32.8997263,112.839493 C38.512577,112.892708 43.0624516,115.974006 43.0624516,119.719847" id="Fill-3" fill="#2E3191"></path>
                        <path d="M24.331789,149.936165 C24.331789,153.335457 19.0959352,156.091622 12.6364606,156.091622 C6.17763373,156.091622 0.94178,153.335457 0.94178,149.936165 C0.94178,146.536873 6.17763373,143.780708 12.6364606,143.780708 C19.0959352,143.780708 24.331789,146.536873 24.331789,149.936165" id="Fill-5" fill="#2E3191"></path>
                        <path d="M120.352216,156.273074 L162.998222,181.044814 C162.998222,181.044814 168.835846,185.278678 179.087962,180.196614 C189.340727,175.114549 212.228073,161.712071 212.228073,161.712071 C212.228073,161.712071 222.160195,156.777971 212.228073,151.344814 C202.29595,145.911009 142.590506,115.096083 142.590506,115.096083 L120.352216,156.273074 Z" id="Fill-7" fill="#F0F5FB"></path>
                        <path d="M128.448583,148.32069 L126.086198,148.04423 L98.0038072,134.124525 C98.0038072,134.124525 88.8787952,139.573906 81.8279146,142.880395 L79.7855236,142.642224 L77.3117236,143.872667 L77.3117236,146.254378 C77.0642788,148.179215 80.028434,149.861988 80.028434,149.861988 C80.028434,149.861988 95.736643,159.920985 99.9470907,162.516855 C104.157539,165.112726 109.987389,162.516855 109.987389,162.516855 L130.198186,150.083286 L128.448583,148.32069 Z" id="Fill-9" fill="#E1E9F6"></path>
                        <polygon id="Fill-11" fill="#7990AF" points="128.448583 148.32069 126.086198 148.04423 118.440025 144.25426 116.613339 155.601457 116.613339 158.440041 130.198186 150.083286"></polygon>
                        <path d="M120.058716,156.320643 L118.16531,153.51256 L113.469041,150.673327 L108.367921,157.893091 L109.23333,162.804478 C109.702957,162.640289 109.987324,162.516985 109.987324,162.516985 L120.058716,156.320643 Z" id="Fill-13" fill="#9CB7D4"></path>
                        <path d="M128.448583,148.32069 L109.987389,159.677622 C109.987389,159.677622 104.157539,162.273493 99.9470907,159.677622 C95.736643,157.081752 80.028434,147.022755 80.028434,147.022755 C80.028434,147.022755 73.9828788,143.940159 80.028434,140.857563 C87.0041743,137.301221 98.0038072,131.285292 98.0038072,131.285292 L128.448583,148.32069 Z" id="Fill-15" fill="#C6D8EE"></path>
                        <path d="M128.448583,148.32069 L98.0038072,131.285292 C98.0038072,131.285292 92.3527385,134.375676 86.5831296,137.436206 L116.613339,155.601457 L128.448583,148.32069 Z" id="Fill-17" fill="#899DC0"></path>
                        <g id="Group-21" transform="translate(52.468657, 0.142773)">
                            <mask id="mask-2" fill="white">
                                <use xlink:href="#path-1"></use>
                            </mask>
                            <g id="Clip-20"></g>
                            <path d="M143.267416,72.9813333 L20.0230758,1.3340177 C17.8355863,0.0685309735 16.632046,0.474135693 15.9868758,1.09844248 L15.983637,1.09714454 L12.35164,3.48274926 L14.1673146,7.14746903 L14.5093325,7.23897345 C11.48364,26.2232212 0.779386269,93.4432802 0.292917612,97.2728378 C-0.273873433,101.73449 3.04590269,103.275788 3.04590269,103.275788 C3.04590269,103.275788 114.29241,167.884401 125.769443,174.632366 L126.605703,177.674726 L129.816007,175.721982 C131.114121,175.022395 131.06813,172.813959 131.06813,172.813959 C131.06813,172.813959 144.693786,87.1210383 145.858461,80.1199764 C146.695368,75.0904779 143.267416,72.9813333 143.267416,72.9813333" id="Fill-19" fill="#C1CBD4" mask="url(#mask-2)"></path>
                        </g>
                        <path d="M195.736073,73.1241062 L178.264658,63.0203304 L163.78007,63.4979705 L157.044649,162.09626 C171.135398,170.250537 175.1567,172.96387 178.2381,174.775139 L179.074359,177.817499 L182.284664,175.864755 C183.582777,175.165168 183.536786,172.956732 183.536786,172.956732 C183.536786,172.956732 197.162443,87.2638112 198.327118,80.2627493 C199.164025,75.2332507 195.736073,73.1241062 195.736073,73.1241062" id="Fill-22" fill="#879AA9"></path>
                        <path d="M68.6053597,4.07246608 L191.8497,75.7197817 C191.8497,75.7197817 195.277652,77.8289263 194.440745,82.8584248 C193.27607,89.8594867 179.650413,175.552407 179.650413,175.552407 C179.650413,175.552407 179.75859,180.636419 175.116085,177.823794 C170.473581,175.011817 51.6281866,106.014236 51.6281866,106.014236 C51.6281866,106.014236 48.3084104,104.472938 48.8752015,100.011286 C49.4419925,95.5496342 63.8818851,5.01866077 63.8818851,5.01866077 C63.8818851,5.01866077 64.6093209,1.76149263 68.6053597,4.07246608" id="Fill-24" fill="#A3C0E0"></path>
                        <path d="M68.6053597,4.07246608 L191.8497,75.7197817 C191.8497,75.7197817 195.358622,77.5044425 194.440745,82.8584248 C193.241739,89.854295 181.054112,165.49341 181.054112,165.49341 C181.054112,165.49341 181.16164,170.577422 176.519784,167.764796 C171.877279,164.95282 53.0318851,95.9552389 53.0318851,95.9552389 C53.0318851,95.9552389 49.712109,94.413941 50.2789,89.9522891 C50.845691,85.4906372 63.8818851,5.01866077 63.8818851,5.01866077 C63.8818851,5.01866077 64.6093209,1.76149263 68.6053597,4.07246608" id="Fill-26" fill="#46456D"></path>
                        <path d="M186.613652,80.587233 L70.8451236,14.8344897 C70.8451236,14.8344897 66.715646,11.9952566 65.9869146,15.4023363 C65.2581833,18.8094159 53.5984818,86.5454041 53.5984818,86.5454041 C53.5984818,86.5454041 53.1126609,89.7902419 56.2704967,91.8993864 C59.4283325,94.008531 172.767756,158.463339 172.767756,158.463339 C172.767756,158.463339 176.897234,161.302572 177.787906,156.759799 C178.678577,152.217027 189.784443,87.6460531 189.784443,87.6460531 C189.784443,87.6460531 191.309921,83.507587 186.613652,80.587233" id="Fill-28" fill="#6271F0"></path>
                        <path d="M176.317164,212.898673 L165.952985,218.65826 C165.952985,218.65826 163.928731,220.193717 161.985447,219.101504 C160.042164,218.009292 118.990298,194.098732 118.990298,194.098732 C118.990298,194.098732 116.075373,192.448407 119.638059,190.870767 C123.200746,189.292478 129.516418,186.696608 129.516418,186.696608 L170.973134,208.680383 L172.673507,209.004867 L175.953122,210.910885 C175.953122,210.910885 177.774627,211.803864 176.317164,212.898673" id="Fill-30" fill="#4E5ACA"></path>
                        <path d="M176.317164,211.600737 L165.952985,217.360324 C165.952985,217.360324 163.928731,218.895782 161.985447,217.803569 C160.042164,216.711357 118.990298,192.800796 118.990298,192.800796 C118.990298,192.800796 116.075373,191.150472 119.638059,189.572832 C123.200746,187.994543 129.516418,185.398673 129.516418,185.398673 L170.973134,207.382448 L172.673507,207.706932 L175.953122,209.61295 C175.953122,209.61295 177.774627,210.505929 176.317164,211.600737" id="Fill-32" fill="#7A8EFF"></path>
                        <polygon id="Fill-34" fill="#E6AE01" points="121.45354 172.529581 130.036376 177.364389 130.036376 195.514714 121.45354 190.289227"></polygon>
                        <polygon id="Fill-36" fill="#45446C" points="138.943092 172.529581 130.036376 177.364389 130.036376 195.514714 138.943092 190.289227"></polygon>
                        <polygon id="Fill-38" fill="#E8C640" points="121.45354 172.529581 130.036376 167.424802 138.943092 172.529581 130.036376 177.364389"></polygon>
                        <polygon id="Fill-40" fill="#EF487C" points="132.836194 167.974802 141.41903 172.809611 141.41903 202.446012 132.836194 197.220525"></polygon>
                        <polygon id="Fill-42" fill="#45446C" points="150.325746 167.974802 141.41903 172.809611 141.41903 202.446012 150.325746 197.220525"></polygon>
                        <polygon id="Fill-44" fill="#FF619B" points="132.836194 167.974802 141.41903 162.870024 150.325746 167.974802 141.41903 172.809611"></polygon>
                        <polygon id="Fill-46" fill="#17C6A5" points="143.909477 185.727634 152.492313 190.562442 152.492313 208.712118 143.909477 203.486631"></polygon>
                        <polygon id="Fill-48" fill="#45446C" points="161.399029 185.727634 152.492313 190.562442 152.492313 208.712118 161.399029 203.486631"></polygon>
                        <polygon id="Fill-50" fill="#27E0C0" points="143.909477 185.727634 152.492313 180.622206 161.399029 185.727634 152.492313 190.562442"></polygon>
                        <polygon id="Fill-52" fill="#A7D1E9" points="155.461002 199.398395 164.043838 204.233204 164.043838 215.634914 155.461002 210.409428"></polygon>
                        <polygon id="Fill-54" fill="#45446C" points="172.950555 199.398395 164.043838 204.233204 164.043838 215.634914 172.950555 210.409428"></polygon>
                        <polygon id="Fill-56" fill="#CAEFFF" points="155.461002 199.398395 164.043838 194.292968 172.950555 199.398395 164.043838 204.233204"></polygon>
                        <path d="M86.3586803,34.3312271 C86.3586803,34.3312271 83.0389042,32.3032035 82.391143,35.7914041 C81.7433818,39.2796047 74.2131579,84.9506962 74.2131579,84.9506962 C74.2131579,84.9506962 73.0931788,88.8445015 76.8508415,91.1970088 C80.6097997,93.5495162 168.948233,144.655711 168.948233,144.655711 C168.948233,144.655711 171.701218,146.440372 172.672859,141.654236 C173.644501,136.8681 179.555322,98.3356519 179.555322,98.3356519 C179.555322,98.3356519 182.227337,90.3857994 175.425844,86.0052684 C169.299967,82.0595457 86.3586803,34.3312271 86.3586803,34.3312271" id="Fill-58" fill="#45446C"></path>
                        <path d="M81.4131531,41.5186726 C79.2114128,54.6388496 74.2132875,84.950826 74.2132875,84.950826 C74.2132875,84.950826 73.0926606,88.8446313 76.850971,91.1971386 C80.6099293,93.549646 168.948362,144.655841 168.948362,144.655841 C168.948362,144.655841 171.701347,146.440501 172.672989,141.654366 C173.644631,136.86823 179.555452,98.3357817 179.555452,98.3357817 L81.4131531,41.5186726 Z" id="Fill-60" fill="#A6CEE7"></path>
                        <path d="M52.5131579,28.2490383 L45.8736057,67.6718702 C45.8736057,67.6718702 44.4971131,71.8090383 47.4930087,73.5936991 C50.4889042,75.3783599 66.4400236,84.5450265 66.4400236,84.5450265 C66.4400236,84.5450265 69.5168893,87.0597758 70.1646504,83.4904543 C70.8124116,79.9211327 76.7232325,43.0111032 76.7232325,43.0111032 C76.7232325,43.0111032 77.6139042,39.6040236 74.6989788,37.8466195 C71.3053579,35.7997758 55.266143,26.3001888 55.266143,26.3001888 C55.266143,26.3001888 53.1771131,24.3059115 52.5131579,28.2490383" id="Fill-62" fill="#45446C"></path>
                        <path d="M60.1224734,40.5236755 C59.7888764,40.5236755 59.4513928,40.4380118 59.1424107,40.2569499 L54.7162585,37.6610796 C53.7906078,37.1178938 53.4790346,35.9250914 54.0212107,34.9970678 C54.5627391,34.0696932 55.7533242,33.7562419 56.6802704,34.3007257 L61.1064227,36.8965959 C62.0320734,37.4397817 62.3436466,38.6325841 61.8014704,39.5606077 C61.4400197,40.1790737 60.7896675,40.5236755 60.1224734,40.5236755" id="Fill-64" fill="#D84178"></path>
                        <path d="M65.0888585,51.6645015 C64.7805242,51.6645015 64.4683033,51.5911681 64.1781063,51.4354159 L57.4841421,47.8660944 C56.5364675,47.3611976 56.17696,46.1820236 56.681566,45.233233 C57.1868197,44.2837935 58.3638018,43.9223186 59.3095331,44.4291622 L66.0034973,47.9984838 C66.9511719,48.5033805 67.3106794,49.6825546 66.8060734,50.6313451 C66.4562824,51.2893982 65.7839063,51.6645015 65.0888585,51.6645015" id="Fill-66" fill="#FFFFFF"></path>
                        <path d="M69.2993063,62.3724661 C68.9786645,62.3724661 68.6534884,62.2926431 68.3535749,62.1245605 L56.3699928,55.4187788 C55.4333301,54.8950619 55.0977899,53.7081003 55.6211809,52.7696932 C56.1432764,51.8312861 57.3286794,51.493823 58.2653421,52.0194867 L70.2489242,58.7252684 C71.1855869,59.2496342 71.5211272,60.4359469 70.9977361,61.374354 C70.6421152,62.0122891 69.980751,62.3724661 69.2993063,62.3724661" id="Fill-68" fill="#A8D5EC"></path>
                        <path d="M62.4978137,67.0229676 C62.1545003,67.0229676 61.8073003,66.9321121 61.4918406,66.7406667 L54.9060525,62.7384838 C53.9881749,62.1810206 53.6960346,60.9830265 54.2524615,60.0640885 C54.8088884,59.1438525 56.0046555,58.8518171 56.9218854,59.4092802 L63.5076734,63.4114631 C64.425551,63.9689263 64.7176913,65.1669204 64.1612645,66.0858584 C63.7959272,66.6893982 63.1546436,67.0229676 62.4978137,67.0229676" id="Fill-70" fill="#FFFFFF"></path>
                        <path d="M55.5881451,70.8090442 C55.2720376,70.8090442 54.9507481,70.7311681 54.6540734,70.5676283 L50.3354496,68.1885133 C49.3942525,67.6699882 49.0515869,66.4862714 49.5685003,65.5446195 C50.0854137,64.6023186 51.2669301,64.2577168 52.2074794,64.7762419 L56.5261033,67.1553569 C57.4666525,67.673882 57.809966,68.8575988 57.2930525,69.7992507 C56.9393749,70.4443245 56.2741242,70.8090442 55.5881451,70.8090442" id="Fill-72" fill="#D44177"></path>
                        <path d="M118.181244,66.1046136 C118.181244,66.1046136 115.56688,64.5075044 115.057092,67.2539351 C114.546656,70.0010147 109.543997,101.474643 109.543997,101.474643 C109.543997,101.474643 108.661746,104.541664 111.621367,106.393817 C114.580988,108.246619 163.033525,135.457829 163.033525,135.457829 C163.033525,135.457829 165.201582,136.863493 165.967236,133.094938 C166.732241,129.325735 170.459459,103.473463 170.459459,103.473463 C170.459459,103.473463 171.754982,96.2264425 167.208346,93.7636106 C162.162934,91.0314572 118.181244,66.1046136 118.181244,66.1046136" id="Fill-74" fill="#FFFFFF"></path>
                        <path d="M90.5242382,51.0674513 C90.5242382,51.0674513 87.9105218,49.4703422 87.400086,52.2167729 C86.8902979,54.9638525 81.8869904,86.4374808 81.8869904,86.4374808 C81.8869904,86.4374808 81.0053875,89.5045015 83.9650084,91.3566549 C86.9239815,93.2094572 102.568062,101.991935 102.568062,101.991935 C102.568062,101.991935 104.735471,103.39695 105.500477,99.6277463 C106.266131,95.8591917 109.993996,67.5038525 109.993996,67.5038525 C109.993996,67.5038525 111.040779,62.7449735 107.809098,61.0609027 C102.720286,58.4105192 90.5242382,51.0674513 90.5242382,51.0674513" id="Fill-76" fill="#6F8CAC"></path>
                        <path d="M86.192983,52.857174 C86.192983,52.857174 83.5786188,51.2607139 83.0688307,54.0071445 C82.5583949,56.7542242 77.5557352,88.2278525 77.5557352,88.2278525 C77.5557352,88.2278525 76.6734845,91.2942242 79.6331054,93.1463776 C82.5920785,94.9991799 98.2361591,103.781658 98.2361591,103.781658 C98.2361591,103.781658 100.403568,105.187322 101.169222,101.418118 C101.934228,97.6495634 105.662093,69.2942242 105.662093,69.2942242 C105.662093,69.2942242 106.709523,64.5353451 103.477195,62.8512743 C98.388383,60.2008909 86.192983,52.857174 86.192983,52.857174" id="Fill-78" fill="#FFFFFD"></path>
                        <path d="M165.222375,102.896791 C165.001488,102.896791 164.777363,102.84033 164.57267,102.72092 L118.581626,75.9328378 C117.963014,75.5726608 117.753139,74.7776755 118.111999,74.1585605 C118.472802,73.5394454 119.264366,73.327882 119.883626,73.688059 L165.87467,100.476791 C166.493282,100.836968 166.703157,101.631953 166.34365,102.251068 C166.102682,102.665758 165.668682,102.896791 165.222375,102.896791" id="Fill-80" fill="#45446C"></path>
                        <path d="M136.235061,92.9816696 C136.017414,92.9816696 135.795879,92.9265074 135.593778,92.8103422 L118.590047,83.0758289 C117.968844,82.7201947 117.753139,81.9278053 118.108112,81.3054454 C118.462438,80.6830855 119.25465,80.4669794 119.875205,80.8226136 L136.878936,90.5571268 C137.500139,90.9127611 137.715844,91.7051504 137.36087,92.3275103 C137.121847,92.7473923 136.684608,92.9816696 136.235061,92.9816696" id="Fill-82" fill="#45446C"></path>
                        <path d="M101.093369,71.1480649 C100.875721,71.1480649 100.654187,71.0929027 100.452085,70.9767375 L85.7381899,62.5537876 C85.1169869,62.1981534 84.9012824,61.405115 85.2562555,60.7827552 C85.6118764,60.1603953 86.4027928,59.9449381 87.0233481,60.2999233 L101.737244,68.7235221 C102.358447,69.0791563 102.574151,69.8715457 102.219178,70.4939056 C101.980154,70.9137876 101.542915,71.1480649 101.093369,71.1480649" id="Fill-84" fill="#D84178"></path>
                        <path d="M163.926853,109.389646 C163.697545,109.389646 163.466294,109.328643 163.25642,109.201445 L145.604927,98.4720649 C144.993441,98.1002065 144.797817,97.3019764 145.168984,96.689351 C145.539503,96.0760767 146.336897,95.8820354 146.948384,96.2525959 L164.599876,106.981976 C165.211363,107.353835 165.406987,108.152065 165.03582,108.76469 C164.792261,109.16705 164.364739,109.389646 163.926853,109.389646" id="Fill-86" fill="#45446C"></path>
                        <polygon id="Fill-88" fill="#A7D1E7" points="89.6417931 89.8622773 89.1812349 92.0298289 80.8432528 86.8341947 81.2882648 84.447941"></polygon>
                        <polygon id="Fill-90" fill="#A7D1E7" points="82.2557609 79.4648437 81.7641101 81.9010678 98.8818475 92.3922773 99.3262116 89.9424248"></polygon>
                        <polygon id="Fill-92" fill="#A7D1E9" points="136.236292 99.9175103 136.754501 97.4741475 117.507573 85.7602832 116.857221 88.5132035"></polygon>
                        <polygon id="Fill-94" fill="#A7D1E9" points="134.972381 105.875422 135.420631 103.761086 115.972249 92.2594336 115.413879 94.6229735"></polygon>
                        <polygon id="Fill-96" fill="#A7D1E9" points="164.057765 115.756342 164.575974 112.664012 144.680637 101.599115 144.030284 104.352035"></polygon>
                        <polygon id="Fill-98" fill="#A7D1E9" points="162.79327 123.012254 163.241521 119.599982 143.146026 108.09833 142.587656 111.760454"></polygon>
                        <polygon id="Fill-100" fill="#A7D1E9" points="141.583496 114.711894 141.008284 117.148118 150.06269 122.146466 150.775227 119.433782"></polygon>
                        <path d="M118.124889,95.0686195 C118.124889,95.0686195 115.511173,93.4721593 115.001385,96.21859 C114.490949,98.9656696 112.139576,114.546732 112.139576,114.546732 C112.139576,114.546732 111.381695,118.093339 113.553639,119.256289 C116.631152,120.904667 142.467755,136.649268 142.467755,136.649268 C142.467755,136.649268 144.635812,138.054932 145.400818,134.286378 C146.165824,130.517174 148.416146,115.087322 148.416146,115.087322 C148.416146,115.087322 148.677841,113.22154 147.177627,112.396053 C142.151647,109.629504 118.124889,95.0686195 118.124889,95.0686195" id="Fill-102" fill="#ADAABD"></path>
                        <path d="M115.636968,97.7417817 C115.636968,97.7417817 113.022604,96.1446726 112.512816,98.8911032 C112.003028,101.638183 109.651655,117.219245 109.651655,117.219245 C109.651655,117.219245 108.893774,120.766501 111.06507,121.929451 C114.143231,123.57718 139.979834,139.321782 139.979834,139.321782 C139.979834,139.321782 142.14789,140.727445 142.912896,136.958891 C143.677902,133.189687 145.928225,117.760484 145.928225,117.760484 C145.928225,117.760484 146.189273,115.894702 144.689705,115.068566 C139.663079,112.302667 115.636968,97.7417817 115.636968,97.7417817" id="Fill-104" fill="#E2EAF5"></path>
                        <path d="M51.1606973,141.231499 C51.1134107,141.206189 51.0628854,141.191912 51.0136555,141.171145 L53.7588675,130.580643 L67.6824943,138.422767 L65.0091839,148.632973 L51.1606973,141.231499 Z M68.7014227,134.53026 L54.9475093,126.782885 C54.8879152,126.749788 54.8250824,126.729021 54.7635451,126.702413 L57.2237421,117.209316 L71.195951,125.003416 L68.7014227,134.53026 Z M72.2135839,121.114802 L58.232954,113.31551 L60.7676436,103.53492 L74.5934585,112.026012 L72.2135839,121.114802 Z M78.0842436,98.6897286 L75.6233988,108.091971 L62.2199242,99.8604661 C62.076769,99.7715575 61.9245451,99.7118525 61.7703779,99.6644779 L64.0543839,90.8508496 L78.0842436,98.6897286 Z M83.5714287,84.7654808 C82.623754,84.5143304 81.6462824,85.0854218 81.3968943,86.0394041 L79.1031719,94.8004661 L65.4574346,87.1770442 C65.3259391,87.1037109 65.1886137,87.0511445 65.0493451,87.0102596 L66.5502078,81.2208201 C66.7743331,80.3537994 66.2554764,79.4679587 65.3894197,79.242767 C64.5285451,79.0188732 63.6398167,79.5386962 63.4150436,80.4057168 L54.9649988,113.012442 C54.8127749,113.150673 54.674154,113.30967 54.568569,113.500466 C54.2906794,113.999522 54.2621779,114.56672 54.4318913,115.06967 L43.9906287,155.361469 C43.7658555,156.22849 44.28536,157.114979 45.1514167,157.339522 C45.2874466,157.375215 45.4247719,157.392088 45.5595063,157.392088 C46.279169,157.392088 46.9366466,156.90731 47.1257928,156.176572 L50.0135122,145.030555 L63.9954376,152.504065 L60.6685361,165.213445 C60.4191481,166.166779 60.9878824,167.142177 61.9400913,167.392678 C62.0910197,167.432265 62.2425958,167.451086 62.3928764,167.451086 C63.1831451,167.451086 63.904751,166.92023 64.1146257,166.118755 L67.6565839,152.591027 C67.7161779,152.511204 67.7835451,152.439168 67.8321272,152.348313 C68.0361719,151.965422 68.0938227,151.546189 68.0342287,151.147074 L81.7382645,98.8032979 C81.7913809,98.7325605 81.853566,98.6709086 81.8976137,98.5910855 C82.113966,98.201056 82.1755033,97.7707906 82.1152615,97.361292 L84.8429839,86.9447139 C85.0923719,85.9913805 84.5236376,85.0159823 83.5714287,84.7654808 Z" id="Fill-106" fill="#373059"></path>
                        <path d="M127.446626,120.54754 C127.446626,120.54754 129.294041,122.781286 129.892573,123.358867 C130.492399,123.936448 131.291089,125.02282 131.291089,125.97226 C131.291089,126.922997 131.64088,130.34046 131.64088,130.34046 C131.64088,130.34046 131.440722,131.132201 130.991823,131.111434 C130.541629,131.091316 128.507011,130.649369 128.507011,130.649369 L128.507011,132.250372 L118.60922,126.452496 L118.908486,124.564649 L116.46254,122.153735 C116.46254,122.153735 118.209552,117.680401 119.108644,117.420814 C120.007737,117.161227 121.288361,117.76931 122.719913,117.633676 L127.446626,120.54754 Z" id="Fill-108" fill="#525179"></path>
                        <polygon id="Fill-110" fill="#FFFFFF" points="130.991564 131.111693 130.991564 133.762726 128.506752 132.250631 128.506752 130.649628"></polygon>
                        <polygon id="Fill-112" fill="#FFFFFF" points="118.609479 126.452301 116.299563 124.93826 116.926596 122.611711 118.908745 124.565103"></polygon>
                        <path d="M123.352581,110.809263 C123.352581,110.809263 122.903035,110.789145 122.80328,111.434867 C122.703524,112.08059 122.603769,113.57646 123.07793,113.94767 C123.552092,114.319528 122.952913,116.143127 123.352581,116.41115 C123.352581,116.41115 123.086351,117.550088 122.719719,117.633805 C122.719719,117.633805 123.452336,120.517817 125.000486,121.137581 C126.547987,121.757345 127.446432,120.54767 127.446432,120.54767 C127.446432,120.54767 126.897778,119.122537 126.997533,118.726018 C127.096641,118.330796 127.596713,118.253569 127.945856,117.768791 C128.295647,117.284661 128.245769,116.982242 128.245769,116.982242 C128.245769,116.982242 128.744545,117.40472 128.944704,117.013392 C129.143566,116.622065 129.743393,114.898407 129.343724,114.529794 C128.944704,114.161829 129.793271,111.849558 128.944704,110.81056 C128.095489,109.771563 124.300904,106.249617 123.352581,110.809263" id="Fill-114" fill="#FFFFFF"></path>
                        <path d="M123.452531,111.564077 C123.452531,111.564077 123.202495,109.401717 123.452531,109.112926 C123.701919,108.823487 123.751796,108.47564 124.05171,108.089504 C124.350976,107.70272 124.201343,107.195876 124.800522,107.122543 C125.399701,107.049209 128.045805,106.768206 128.894373,109.257646 C129.743587,111.747086 129.604967,111.791215 129.749417,112.29741 C129.892573,112.804254 129.343919,114.529858 129.343919,114.529858 L128.794617,114.755699 C128.794617,114.755699 128.74474,113.002838 128.794617,112.354519 C128.844495,111.70685 128.295841,111.395345 127.696662,110.936525 C127.096835,110.477056 125.349823,110.048737 124.450731,109.057764 C124.450731,109.057764 124.101587,110.042248 124.05171,110.440714 C124.001832,110.838531 124.05171,111.390153 124.05171,111.390153 L123.452531,111.564077 Z" id="Fill-116" fill="#B9CEE9"></path>
                        <path d="M92.833766,76.5065251 C92.833766,76.5065251 93.9744734,77.8855811 94.3443451,78.2418643 C94.7142167,78.5987965 95.207163,79.2691799 95.207163,79.8558466 C95.207163,80.4425133 95.4235152,82.5523068 95.4235152,82.5523068 C95.4235152,82.5523068 95.3004406,83.0409794 95.022551,83.028649 C94.7446615,83.0163186 93.4886525,82.7431032 93.4886525,82.7431032 L93.4886525,83.7321298 L87.3770257,80.1517758 L87.5622854,78.9862301 L86.0517063,77.4974985 C86.0517063,77.4974985 87.1302287,74.7354926 87.6860078,74.5751976 C88.2404913,74.4149027 89.0314078,74.7906549 89.9156018,74.707587 L92.833766,76.5065251 Z" id="Fill-118" fill="#525179"></path>
                        <polygon id="Fill-120" fill="#FFAA85" points="95.0224863 83.0285192 95.0224863 84.6652153 93.4885878 83.732 93.4885878 82.7436224"></polygon>
                        <polygon id="Fill-122" fill="#FFAA85" points="87.3771552 80.1518407 85.9514328 79.2173274 86.3381463 77.7811622 87.5624149 78.986295"></polygon>
                        <path d="M90.3060075,70.4933864 C90.3060075,70.4933864 90.0281179,70.4804071 89.9672284,70.8795221 C89.9050433,71.2786372 89.843506,72.202118 90.136294,72.4312035 C90.4290821,72.6609381 90.0592104,73.7868968 90.3060075,73.9523835 C90.3060075,73.9523835 90.1414761,74.6552153 89.9154075,74.7071327 C89.9154075,74.7071327 90.3675448,76.4872507 91.3229925,76.8701416 C92.2790881,77.2530324 92.8335716,76.5067198 92.8335716,76.5067198 C92.8335716,76.5067198 92.4947925,75.6260708 92.5563299,75.38141 C92.6178672,75.1373982 92.9262015,75.0893746 93.141906,74.7902006 C93.3582582,74.4910265 93.3271657,74.3047729 93.3271657,74.3047729 C93.3271657,74.3047729 93.6355,74.5656578 93.7585746,74.3242419 C93.882297,74.082177 94.2521687,73.0185192 94.0053716,72.7907316 C93.7585746,72.5635929 94.2826134,71.1358643 93.7585746,70.4946844 C93.2345358,69.8535044 90.8915836,67.6781652 90.3060075,70.4933864" id="Fill-124" fill="#FFAA85"></path>
                        <path d="M90.3673504,70.9592153 C90.3673504,70.9592153 90.213831,69.6242891 90.3673504,69.445823 C90.5215176,69.2680059 90.5526101,69.0525487 90.7372221,68.8137286 C90.9224818,68.5755575 90.8298519,68.2627552 91.1997236,68.2173274 C91.5695952,68.1718997 93.2038967,67.9986254 93.7272878,69.5360295 C94.2519743,71.0727847 94.1664699,71.1000413 94.2552131,71.4121947 C94.3446042,71.725646 94.0051773,72.7906018 94.0051773,72.7906018 L93.6663982,72.9301298 C93.6663982,72.9301298 93.6353057,71.8476519 93.6663982,71.4478879 C93.696843,71.0474749 93.3580639,70.8560295 92.9881922,70.5717817 C92.6183206,70.2888319 91.5391504,70.0240531 90.9840191,69.4120767 C90.9840191,69.4120767 90.7683146,70.0201593 90.7372221,70.266118 C90.7061296,70.5114277 90.7372221,70.8527847 90.7372221,70.8527847 L90.3673504,70.9592153 Z" id="Fill-126" fill="#915151"></path>
                        <path d="M93.8648722,190.902891 C93.8648722,190.902891 93.9024424,191.316283 93.8661678,191.729027 C93.8298931,192.142419 93.417917,194.125015 91.809526,195.033569 C90.2017827,195.942773 89.2534603,196.355516 88.7177618,196.933746 C88.1820633,197.512625 86.6216066,197.057699 86.3715707,196.355516 C86.1202394,195.653333 86.6455737,194.992684 86.6455737,194.992684 L93.8648722,190.902891 Z" id="Fill-128" fill="#15273F"></path>
                        <path d="M90.7273113,191.709038 C90.7273113,191.709038 92.3680904,190.841369 92.5371561,190.500661 C92.7068696,190.159953 93.758186,190.190454 93.8501681,190.717416 C93.9434457,191.243729 93.6357591,192.916767 92.5371561,193.93954 C91.4392009,194.961664 90.5731442,195.219304 89.8619024,195.833227 C89.1500128,196.448448 87.5429173,197.284968 86.6457681,196.231693 C86.6457681,196.231693 86.0271561,195.550277 86.6457681,194.280248 C87.26438,193.010218 90.7273113,191.709038 90.7273113,191.709038" id="Fill-130" fill="#FFFFFF"></path>
                        <path d="M102.953804,196.355711 C102.953804,196.355711 103.11121,196.794413 102.953804,197.209752 C102.797046,197.62574 102.054711,199.474649 100.323246,199.928277 C98.5924278,200.382555 98.3443352,200.754413 97.9427233,201.09577 C97.5411113,201.435829 95.8400904,202.210047 94.6339591,200.816714 L94.6339591,200.19695 L102.953804,196.355711 Z" id="Fill-132" fill="#15273F"></path>
                        <path d="M94.9111361,198.256342 L94.7783451,200.196755 C94.7783451,200.196755 95.3658645,201.095575 96.5409033,201.095575 C97.7159421,201.095575 98.736166,199.680826 99.8490197,199.676283 C100.962521,199.670442 102.601357,198.24531 102.910987,196.851327 C103.219321,195.457345 101.797485,195.013451 101.333688,195.467729 C100.869891,195.921357 98.3306675,197.552212 97.3376496,197.59115 C96.3446316,197.628791 94.9111361,198.256342 94.9111361,198.256342" id="Fill-134" fill="#FFFFFF"></path>
                        <path d="M98.0847773,198.395156 C98.0847773,199.057103 97.4389594,199.59315 96.6415654,199.59315 C95.8448191,199.59315 95.1990012,199.057103 95.1990012,198.395156 C95.1990012,197.733209 95.8448191,197.197162 96.6415654,197.197162 C97.4389594,197.197162 98.0847773,197.733209 98.0847773,198.395156" id="Fill-136" fill="#F24177"></path>
                        <path d="M89.6347973,194.280183 C89.6347973,194.936289 88.96566,195.467794 88.1404122,195.467794 C87.3151645,195.467794 86.6460272,194.936289 86.6460272,194.280183 C86.6460272,193.624077 87.3151645,193.092572 88.1404122,193.092572 C88.96566,193.092572 89.6347973,193.624077 89.6347973,194.280183" id="Fill-138" fill="#ED386F"></path>
                        <path d="M83.2343985,162.207622 C83.2343985,162.207622 84.3589119,165.033876 86.371506,165.059835 C88.3828045,165.084496 85.7801,159.354761 85.7801,159.354761 L83.2343985,162.207622 Z" id="Fill-140" fill="#FEAB81"></path>
                        <path d="M90.1541722,191.359829 C90.1541722,191.359829 90.8511633,191.368265 90.9133484,191.616171 C90.9748857,191.863428 90.9133484,193.443664 90.9133484,193.443664 C90.9133484,193.443664 89.6145872,194.465788 88.315826,194.434637 C87.0170648,194.403487 85.7798409,193.319711 85.7798409,193.319711 L85.7798409,191.677823 C85.7798409,191.677823 85.8750618,191.128796 86.276026,191.185906 C86.6769901,191.243664 90.1541722,191.359829 90.1541722,191.359829" id="Fill-142" fill="#599CD8"></path>
                        <path d="M94.931411,195.833487 C94.931411,195.833487 94.3147424,195.860094 94.2525573,196.13915 C94.1903722,196.417558 94.2525573,197.84269 94.2525573,197.84269 C94.2525573,197.84269 95.0259842,198.585758 96.4789125,198.585758 C97.9324887,198.585758 99.5356976,197.84269 99.5356976,197.84269 L99.5356976,196.200153 L98.8555484,195.833487 L94.931411,195.833487 Z" id="Fill-144" fill="#599CD8"></path>
                        <path d="M98.828731,167.777711 C98.828731,167.777711 99.0347191,171.861664 99.2821639,174.42249 C99.5296087,176.983965 99.8599669,187.227268 98.828731,196.066855 C98.828731,196.066855 96.973543,197.305735 94.9123669,196.066855 C94.9123669,196.066855 95.977934,183.344496 95.5270922,178.635587 C95.0768982,173.927327 94.9123669,172.109569 94.9123669,172.109569 L90.7071012,169.879068 C90.7071012,169.879068 91.8257848,177.479127 91.2661191,181.609156 C90.7071012,185.740484 90.1292982,191.605853 90.1292982,191.605853 C90.1292982,191.605853 87.9035907,193.010218 86.2543907,191.357947 C86.2543907,191.357947 87.7494236,179.627209 87.5790624,177.148153 C87.4087012,174.670395 85.28534,166.305853 85.5632296,162.681369 C85.5632296,162.681369 95.1598116,163.528271 98.828731,167.777711" id="Fill-146" fill="#523554"></path>
                        <path d="M109.682488,126.963103 L98.8286015,157.632012 C98.8286015,157.632012 99.4472134,160.234372 101.488309,160.420625 L112.434178,129.007351 C112.434178,129.007351 109.929933,127.396614 109.682488,126.963103" id="Fill-148" fill="#53527A"></path>
                        <path d="M112.434242,129.007611 C112.434242,129.007611 114.59906,129.379469 115.557099,128.697404 L104.326216,160.141829 C104.326216,160.141829 103.065024,160.822596 101.488374,160.420236 L112.434242,129.007611 Z" id="Fill-150" fill="#5C5B85"></path>
                        <path d="M115.557293,128.697664 L114.784514,120.18905 L109.682747,126.962973 C109.682747,126.962973 112.001732,130.515422 115.557293,128.697664" id="Fill-152" fill="#E1EBF5"></path>
                        <path d="M114.784255,120.188855 L112.00536,123.878885 C112.277419,124.139121 112.622676,124.380537 112.929067,124.319534 C113.547679,124.195581 113.835933,123.865257 114.330822,124.113162 C114.527094,124.211156 114.83219,124.167027 115.138581,124.086555 L114.784255,120.188855 Z" id="Fill-154" fill="#4E4F7D"></path>
                        <path d="M104.326475,160.141569 L103.188358,163.301392 C103.188358,163.301392 100.684113,164.942631 98.1487761,162.34092 L98.8289254,157.632012 C98.8289254,157.632012 99.4961194,161.721805 104.326475,160.141569" id="Fill-156" fill="#E1E9F4"></path>
                        <path d="M103.188488,163.301457 C103.188488,163.301457 102.347694,167.018743 101.237431,167.576206 C100.127168,168.13367 97.963646,167.452254 97.4992012,166.522932 L98.1489057,162.340985 C98.1489057,162.340985 99.9730012,164.911546 103.188488,163.301457" id="Fill-158" fill="#EE4A7D"></path>
                        <path d="M87.1354755,137.732525 C87.1354755,137.732525 85.2647412,137.991463 84.5230546,139.89164 C83.7800725,141.791817 80.317789,152.200608 80.2756845,154.266271 C80.2348755,156.330637 82.0077979,162.681434 82.0077979,162.681434 C82.0077979,162.681434 85.2854696,163.208395 86.2953293,157.32226 C87.2300487,151.874826 87.1354755,137.732525 87.1354755,137.732525" id="Fill-160" fill="#CC0E1D"></path>
                        <path d="M104.325179,155.842808 C104.325179,155.842808 104.7242,156.387292 105.095367,155.842808 C105.466534,155.298324 107.239457,151.704991 107.362531,151.20918 C107.486901,150.713369 107.404636,149.515375 108.352958,149.515375 C108.352958,149.515375 108.682669,148.317381 108.682669,148.152543 C108.682669,147.987705 108.970922,147.326407 109.136101,147.574313 C109.301281,147.822218 110.867567,148.648354 109.877788,151.581038 C108.888657,154.513723 105.862316,161.073487 102.716788,158.41272 C102.716788,158.41272 103.554991,155.842808 104.325179,155.842808" id="Fill-162" fill="#FEA980"></path>
                        <path d="M96.6640427,140.46974 L98.5814158,141.708619 C98.5814158,141.708619 99.8186397,142.204431 100.003899,144.001422 C100.189159,145.798413 100.375067,149.577351 102.044995,152.11741 C103.714276,154.658118 104.765592,154.71977 104.147628,156.826319 C104.147628,156.826319 103.900183,158.65446 101.98281,158.437705 C101.98281,158.437705 100.251344,156.981422 99.9728069,156.455109 C99.9728069,156.455109 99.41638,155.525139 99.41638,156.48626 C99.41638,157.446083 99.3852875,166.244136 99.3852875,166.244136 C99.3852875,166.244136 99.0763054,168.505788 96.2935233,168.19623 C93.5107412,167.886024 87.7903621,165.500419 85.5633591,162.681953 C85.5633591,162.681953 84.9453949,162.371746 84.9143024,161.101717 C84.8832099,159.831687 84.6668576,142.173929 85.1306546,140.46974 C85.5944516,138.766201 86.8310278,137.082779 89.5114636,137.330684 C92.1912516,137.57859 96.6640427,140.46974 96.6640427,140.46974" id="Fill-164" fill="#EC1C24"></path>
                        <path d="M91.9874012,136.59177 L91.9874012,138.146696 C91.9874012,138.146696 93.8503624,139.60233 95.272846,138.579558 L95.272846,137.031121 C95.272846,137.031121 96.41744,138.487404 98.3963504,137.46528 C100.374613,136.443156 99.6640191,134.583864 99.6640191,133.778496 C99.6640191,132.973127 99.4165743,128.635428 99.4165743,128.635428 C99.4165743,128.635428 97.8703684,126.931888 95.3039385,127.644454 C92.7375087,128.35767 89.90744,131.319558 91.9874012,136.59177" id="Fill-166" fill="#F8A185"></path>
                        <path d="M97.6331582,133.592177 C97.4679791,134.790171 96.4788478,135.141912 95.7779701,134.604566 C95.0770925,134.067221 95.160006,131.692 95.160006,131.692 L94.0465045,132.394183 L94.1287701,134.253475 L94.755803,136.151056 L95.1567672,136.715009 L95.5791075,137.321145 C96.041609,137.685215 97.0145463,138.178431 98.3962209,137.465215 C100.18469,136.540437 99.7772478,134.93554 99.6813791,134.039965 C98.2057791,134.971233 97.6331582,133.592177 97.6331582,133.592177" id="Fill-168" fill="#AB6A68"></path>
                        <path d="M88.382934,165.084236 C90.9972982,166.757274 94.35594,167.980578 96.2933937,168.196035 C99.0761758,168.505593 99.3851579,166.243941 99.3851579,166.243941 C99.3851579,166.243941 99.4162504,157.445888 99.4162504,156.486065 C99.4162504,156.083056 99.5147101,156.014265 99.6280684,156.06813 C98.8824952,154.99344 98.04494,153.429428 97.3032534,151.167776 C97.3032534,151.167776 96.5615669,156.414029 96.7260982,158.272024 C96.8912773,160.130667 97.6511012,164.79869 97.00334,165.665711 C96.3568743,166.530785 93.8610504,168.366065 88.382934,165.084236" id="Fill-170" fill="#CC0E1D"></path>
                        <path d="M99.7459609,131.452596 C99.7459609,131.452596 100.715012,131.452596 100.777197,132.052242 L97.1484385,132.341032 C97.1484385,132.341032 96.8809131,132.423451 96.9223699,132.836844 C96.9223699,132.836844 97.334346,132.692124 97.3136176,133.125634 C97.3136176,133.125634 97.2928893,132.733658 97.8907728,132.692124 C98.4886564,132.651239 100.921,132.671357 100.921,132.671357 C100.921,132.671357 100.962456,133.37354 100.652827,133.559145 C100.343844,133.745398 99.7459609,133.559145 99.7459609,133.559145 L99.7867699,133.80705 C99.7867699,133.80705 100.676794,133.869351 100.922943,133.724631 C101.168444,133.579912 101.332976,133.345634 101.292167,132.636313 L101.683415,132.636313 L101.683415,132.154779 L101.332976,132.010059 C101.332976,132.010059 100.962456,130.936667 99.6015101,130.978201 L99.7459609,131.452596 Z" id="Fill-174" fill="#654B68"></path>
                        <path d="M100.035057,126.869912 C100.035057,126.869912 100.189224,128.139941 99.4164448,128.635752 C98.6436657,129.131563 97.8080537,129.162065 97.7160716,129.503422 C97.622794,129.84413 97.7160716,132.600944 97.7160716,132.600944 C97.7160716,132.600944 97.2827194,132.84885 97.2205343,132.600944 C97.1596448,132.353038 96.9122,132.074631 96.6336627,131.764425 C96.3551254,131.454867 95.4275313,131.795575 95.148994,132.941652 C94.8704567,134.088378 94.7473821,136.287729 94.7473821,136.287729 C94.7473821,136.287729 92.5514716,137.247552 91.4386179,136.287729 C90.3257642,135.327257 88.5942985,133.623068 88.6558358,130.803953 C88.7173731,127.985487 89.7382448,126.064543 93.1085463,125.723835 C96.4788478,125.383127 99.4475373,124.392153 100.035057,126.869912" id="Fill-176" fill="#915151"></path>
                        <path d="M91.8722293,137.247681 L90.687474,137.565027 C90.687474,137.565027 90.8209128,140.036295 91.8722293,140.469805 C92.9235457,140.903316 97.1903487,140.809864 97.1903487,140.809864 C97.1903487,140.809864 96.1461576,138.552755 95.5275457,138.51836 C94.908286,138.483316 93.7274173,139.602136 91.8722293,137.247681" id="Fill-178" fill="#CC0E1D"></path>
                        <path d="M18.4645624,82.2400885 C18.4645624,82.2400885 19.558631,82.3510619 19.7147415,83.2946608 C19.8708519,84.2376106 19.8183833,84.9216224 18.1743654,84.7029204 C18.1743654,84.7029204 18.2397893,82.4023304 18.4645624,82.2400885" id="Fill-180" fill="#ACB7F7"></path>
                        <path d="M17.2380266,119.664749 C17.2380266,119.664749 16.6582803,121.989351 16.9957639,123.232773 C17.3325997,124.476844 18.5568684,128.370649 18.0529101,137.672301 C17.5489519,146.974602 17.5314624,148.761858 17.5314624,148.761858 C17.5314624,148.761858 16.0370773,149.40823 14.6877907,149.083746 C13.3385042,148.759263 13.3385042,148.542507 13.3385042,148.542507 C13.3385042,148.542507 14.255734,139.565339 14.1482057,135.238673 C14.0400296,130.912655 13.716149,126.532124 13.3385042,125.234189 C12.9602116,123.936254 12.636331,123.613068 12.3124504,123.450177 C11.9885699,123.287286 9.66764149,122.151593 9.66764149,122.151593 C9.66764149,122.151593 8.80417582,121.476667 9.0198803,122.787581 C9.23558478,124.098496 10.0996982,129.560206 9.77581761,132.805044 C9.45193701,136.049882 8.48029522,142.052832 8.64223552,143.837493 C8.64223552,143.837493 7.94006239,144.75708 6.05119075,144.540973 C4.16167134,144.324218 4.48555194,143.892006 4.48555194,143.892006 C4.48555194,143.892006 5.83483851,134.291829 5.67289821,130.709528 C5.51095791,127.126578 3.9187609,116.850177 4.12151015,114.552183 C4.12151015,114.552183 8.07479672,109.768643 17.2380266,119.664749" id="Fill-182" fill="#CEAB8B"></path>
                        <path d="M0.76183194,98.3001534 C0.76183194,98.3001534 0.478112537,101.628059 0.518273731,103.41272 C0.559082687,105.197381 1.00409463,113.106348 0.963933433,113.958442 C0.923124478,114.809888 0.320706567,117.608885 0.965876716,118.298088 C1.61169463,118.987941 4.0407991,119.555788 4.12176925,116.756791 C4.12176925,116.756791 3.39822,112.375611 3.19028866,111.768177 L3.54331851,98.9562596 L0.76183194,98.3001534 Z" id="Fill-184" fill="#FFAA85"></path>
                        <path d="M3.35229373,99.329351 C3.35229373,99.329351 1.0041594,98.4642773 0.437368358,98.1397935 C-0.129422687,97.8153097 -0.0212465672,97.2202065 0.086281791,96.7062242 C0.19445791,96.1928909 2.56915045,89.7077581 5.09347582,88.8939528 C5.09347582,88.8939528 4.08102507,98.5992625 3.35229373,99.329351" id="Fill-186" fill="#45446C"></path>
                        <path d="M20.9626534,96.4660413 L20.9626534,99.9490501 C20.9626534,99.9490501 21.2262922,101.447516 23.0277161,101.447516 C24.8297878,101.447516 25.3758504,100.474065 25.4976296,100.392944 C25.6187609,100.311823 25.699731,99.8250973 25.699731,99.3786077 L25.699731,96.3570147 L20.9626534,96.4660413 Z" id="Fill-188" fill="#8686FE"></path>
                        <path d="M25.9226904,95.8399174 C25.9226904,96.7303009 24.7670845,97.4519528 23.3420099,97.4519528 C21.9162875,97.4519528 20.7606815,96.7303009 20.7606815,95.8399174 C20.7606815,94.9495339 21.9162875,94.227882 23.3420099,94.227882 C24.7670845,94.227882 25.9226904,94.9495339 25.9226904,95.8399174" id="Fill-190" fill="#E7E0FF"></path>
                        <path d="M25.5222445,95.8399174 C25.5222445,96.5920708 24.5454206,97.2021003 23.3418803,97.2021003 C22.1370445,97.2021003 21.1615161,96.5920708 21.1615161,95.8399174 C21.1615161,95.087764 22.1370445,94.4777345 23.3418803,94.4777345 C24.5454206,94.4777345 25.5222445,95.087764 25.5222445,95.8399174" id="Fill-192" fill="#F24177"></path>
                        <path d="M25.5222445,95.8399174 C25.5222445,96.5920708 24.5454206,97.2021003 23.3418803,97.2021003 C22.1370445,97.2021003 21.1615161,96.5920708 21.1615161,95.8399174 C21.1615161,95.087764 22.1370445,94.4777345 23.3418803,94.4777345 C24.5454206,94.4777345 25.5222445,95.087764 25.5222445,95.8399174" id="Fill-194" fill="#A6A6E4"></path>
                        <path d="M23.3417507,97.2018407 C24.1760672,97.2018407 24.892491,96.9059115 25.2591239,96.475646 C25.0900582,95.9097463 24.2978463,95.4801298 23.3417507,95.4801298 C22.3856552,95.4801298 21.5934433,95.9097463 21.4243776,96.475646 C21.7903627,96.9059115 22.5074343,97.2018407 23.3417507,97.2018407" id="Fill-196" fill="#555682"></path>
                        <path d="M23.6485952,96.4426136 C23.6485952,96.6593687 23.285849,96.83459 22.8388937,96.83459 C22.3919385,96.83459 22.0291922,96.6593687 22.0291922,96.4426136 C22.0291922,96.2265074 22.3919385,96.0506372 22.8388937,96.0506372 C23.285849,96.0506372 23.6485952,96.2265074 23.6485952,96.4426136" id="Fill-198" fill="#6B6C9C"></path>
                        <path d="M25.4033155,97.1390855 C25.4033155,97.1390855 26.3613543,97.5849263 26.5096916,97.950295 C26.658029,98.3150147 26.6042648,100.343038 26.6042648,100.343038 C26.6042648,100.343038 26.6483125,100.910885 25.9577991,100.897906 C25.2679334,100.884277 24.9984648,100.492301 24.9984648,100.492301 L25.052229,99.9374336 C25.052229,99.9374336 25.4033155,100.073068 25.7135931,100.154189 C26.0238707,100.23531 25.9429006,99.8861652 25.9429006,99.8861652 C25.9429006,99.8861652 26.0102678,98.450649 25.8619304,98.2072861 C25.7135931,97.9639233 25.052229,97.7205605 25.052229,97.7205605 C25.052229,97.7205605 24.9984648,97.1527139 25.0658319,97.1390855 C25.1331991,97.1254572 25.4033155,97.1390855 25.4033155,97.1390855" id="Fill-200" fill="#353F5A"></path>
                        <path d="M12.4152501,143.819127 C12.4152501,143.819127 12.4528203,144.233168 12.4165457,144.645912 C12.380271,145.059304 11.9682949,147.0419 10.3599039,147.950454 C8.7521606,148.859658 7.80383821,149.271752 7.2681397,149.850631 C6.73244119,150.428861 5.17198448,149.973935 4.9213009,149.271752 C4.67061731,148.569569 5.19595164,147.909569 5.19595164,147.909569 L12.4152501,143.819127 Z" id="Fill-202" fill="#15273F"></path>
                        <path d="M9.27762448,144.625274 C9.27762448,144.625274 10.9184036,143.758254 11.0874693,143.417546 C11.2571827,143.076189 12.3084991,143.107339 12.4004812,143.634301 C12.4937588,144.160614 12.1860722,145.833003 11.0874693,146.856425 C9.98951403,147.878549 9.12345731,148.13554 8.41221552,148.750112 C7.70032597,149.365333 6.09323045,150.201853 5.19608119,149.148578 C5.19608119,149.148578 4.57746925,148.466513 5.19608119,147.196484 C5.81469313,145.926454 9.27762448,144.625274 9.27762448,144.625274" id="Fill-204" fill="#8D5150"></path>
                        <path d="M21.504117,149.272012 C21.504117,149.272012 21.6608752,149.710714 21.504117,150.126053 C21.3473588,150.542041 20.6050245,152.39095 18.8735588,152.845227 C17.1420931,153.299504 16.8946484,153.670714 16.4930364,154.012071 C16.0907767,154.352779 14.3904036,155.126997 13.1842722,153.733015 L13.1842722,153.1139 L21.504117,149.272012 Z" id="Fill-206" fill="#15273F"></path>
                        <path d="M13.461514,151.173227 L13.328723,153.11364 C13.328723,153.11364 13.9162424,154.011811 15.0912812,154.011811 C16.2656722,154.011811 17.2858961,152.597711 18.3993976,152.592519 C19.5128991,152.587327 21.1517349,151.161546 21.460717,149.767563 C21.7696991,148.37423 20.3478633,147.929687 19.8840663,148.383965 C19.4196215,148.838242 16.8810454,150.469097 15.8880275,150.507386 C14.8943618,150.545676 13.461514,151.173227 13.461514,151.173227" id="Fill-208" fill="#8D5150"></path>
                        <path d="M16.6351552,151.312041 C16.6351552,151.973988 15.9893373,152.510035 15.1919433,152.510035 C14.395197,152.510035 13.7493791,151.973988 13.7493791,151.312041 C13.7493791,150.650094 14.395197,150.114047 15.1919433,150.114047 C15.9893373,150.114047 16.6351552,150.650094 16.6351552,151.312041" id="Fill-210" fill="#C0E0FF"></path>
                        <path d="M8.18517522,147.196419 C8.18517522,147.852525 7.51603791,148.384029 6.69079015,148.384029 C5.86554239,148.384029 5.19640507,147.852525 5.19640507,147.196419 C5.19640507,146.540313 5.86554239,146.008808 6.69079015,146.008808 C7.51603791,146.008808 8.18517522,146.540313 8.18517522,147.196419" id="Fill-212" fill="#C0E0FF"></path>
                        <path d="M13.6355027,88.8920059 L13.6355027,89.7843363 C13.6355027,89.7843363 12.9877415,90.2710619 11.57044,89.7843363 C10.1537863,89.2976106 10.3157266,88.8920059 10.3157266,88.8920059 L10.3098967,87.5765487 C10.3098967,87.5765487 8.16969373,84.8359587 8.93923403,81.3068732 C9.70877433,77.7784366 13.9593833,78.1840413 16.1863863,78.629882 C18.4127415,79.0763717 18.6958131,81.1446313 18.3317713,83.2537758 C17.9670818,85.3635693 18.5338728,89.5409735 13.6355027,88.8920059" id="Fill-214" fill="#FFAA83"></path>
                        <path d="M10.1809275,88.8374926 C10.1809275,88.8374926 9.77607672,88.4318879 9.29025582,88.4318879 C8.80443493,88.4318879 8.42614239,88.8374926 8.42614239,88.8374926 C8.42614239,88.8374926 8.61528866,91.0822714 9.69510657,91.7039823 C10.7742767,92.3256932 13.6354379,91.9200885 15.1738707,91.9473451 C15.1738707,91.9473451 14.9847245,90.2438053 13.9055543,89.8654572 C13.9055543,89.8654572 11.55742,90.5410324 10.1809275,88.8374926" id="Fill-216" fill="#FFFFFF"></path>
                        <path d="M8.42620716,88.8374926 C8.42620716,88.8374926 5.45751761,88.0535398 4.32393552,89.4598525 C3.19035343,90.8655162 3.02841313,96.3953687 2.98760418,101.66823 C2.94744299,106.941091 2.98760418,112.051711 2.98760418,112.051711 C2.98760418,112.051711 2.90663403,113.147168 3.63536537,114.039499 C4.36409672,114.931829 9.59347284,119.717965 13.6186609,120.042448 C17.6432012,120.366932 17.9269206,119.31236 17.8861116,118.054661 C17.8459504,116.797611 17.8893504,103.169292 17.8893504,103.169292 C17.8893504,103.169292 18.2572788,94.529587 17.8893504,93.7183776 C17.5220699,92.9071681 15.1739355,91.9473451 15.1739355,91.9473451 C15.1739355,91.9473451 11.1189504,92.7267552 9.69517134,91.7039823 C8.77211164,91.0413864 8.42620716,88.8374926 8.42620716,88.8374926" id="Fill-218" fill="#52517B"></path>
                        <path d="M6.05144985,144.540973 C4.16193045,144.324218 4.48581104,143.892006 4.48581104,143.892006 C4.48581104,143.892006 4.49552746,143.824513 4.51107373,143.710295 L3.97990955,144.095133 L3.97990955,145.859027 C3.97990955,145.859027 4.97163194,146.691003 6.08513343,146.873363 C7.19863493,147.055723 9.22288866,146.123156 9.22288866,146.123156 L9.22288866,144.014012 L8.64249463,143.837493 C8.64249463,143.837493 7.94032149,144.75708 6.05144985,144.540973" id="Fill-220" fill="#E5C1A7"></path>
                        <path d="M17.5397537,148.413882 C17.5326284,148.667628 17.5313328,148.761729 17.5313328,148.761729 C17.5313328,148.761729 16.0375955,149.4081 14.688309,149.083617 C13.3390224,148.759133 13.3390224,148.542378 13.3390224,148.542378 C13.3390224,148.542378 13.342909,148.495652 13.3513299,148.413882 C13.3513299,148.413882 12.6368493,148.650755 12.6368493,148.812997 L12.6368493,150.624914 C12.6368493,150.624914 13.7166672,151.408867 14.9040134,151.517245 C16.0920075,151.624973 17.8189388,151.084383 18.3047597,150.570401 L18.3047597,149.174472 C18.3047597,149.174472 18.016506,148.421021 17.5397537,148.413882" id="Fill-222" fill="#E5C1A7"></path>
                        <path d="M17.9806848,100.588673 L16.1993415,100.89823 C16.1993415,100.89823 15.6137654,104.03469 15.5289087,106.576696 C15.4440519,109.118053 16.0147296,115.824484 15.8638012,116.418938 C15.7135206,117.014041 15.4978161,118.872035 13.3925922,118.862301 C11.3061534,118.852566 7.11708179,117.07764 6.23094448,116.383245 C8.28564299,118.000472 11.1720669,119.844838 13.6186609,120.042773 C17.6432012,120.367257 17.9269206,119.312684 17.8861116,118.054985 C17.8459504,116.797935 17.8893504,103.169617 17.8893504,103.169617 C17.8893504,103.169617 17.9372848,102.054041 17.9806848,100.588673" id="Fill-224" fill="#424264"></path>
                        <path d="M16.9957639,103.07928 C16.9957639,103.07928 19.5466475,108.280106 20.2345699,109.172437 C20.9224922,110.064767 23.5951549,110.910372 24.8906773,108.581227 C26.1861997,106.252083 27.9668952,102.398513 27.9668952,102.398513 C27.9668952,102.398513 28.938537,100.857215 27.6430146,100.127127 C26.34814,99.3970383 25.3764982,100.451611 25.3356893,101.628189 C25.3356893,101.628189 23.8782266,105.237746 22.9473937,106.414324 C22.0159131,107.590254 22.2588236,107.590254 21.4892833,106.130077 C20.7203907,104.6699 19.6541758,102.314796 19.6541758,102.314796 C19.6541758,102.314796 18.4130654,101.48931 16.9957639,103.07928" id="Fill-226" fill="#FFAA83"></path>
                        <path d="M15.5515803,100.573422 L16.3075176,103.060914 C16.3075176,103.060914 19.1686788,103.358142 20.4097893,101.573481 C20.4097893,101.573481 19.2017146,95.2733038 17.8893504,93.7183776 C17.8893504,93.7183776 14.4989684,95.2460472 15.5515803,100.573422" id="Fill-228" fill="#52517B"></path>
                        <path d="M14.4452042,86.0527729 C14.4452042,86.0527729 13.352431,87.7160767 11.3683385,87.7563127 C9.38489373,87.7971976 6.75304,85.5660472 7.15789075,81.3477581 C7.56274149,77.129469 9.62780418,76.6018584 11.9752907,76.5207375 C14.3240728,76.4396165 18.1290221,76.0748968 18.8577534,77.6564307 C19.5864848,79.2386136 18.4127415,80.2120649 17.8051415,80.4145428 C17.1981893,80.6176696 16.2265475,80.4145428 16.2673564,81.2666372 C16.3075176,82.1187316 16.3075176,83.4166667 16.3075176,83.4166667 L15.7815355,83.8625074 C15.7815355,83.8625074 14.9310251,82.1187316 13.8784131,83.2135398 C12.8258012,84.3083481 13.7164728,85.6069322 14.4452042,86.0527729" id="Fill-230" fill="#492817"></path>
                        <path d="M20.2946173,83.1450737 L19.9441785,83.000354 C19.9441785,83.000354 19.609286,82.0755752 18.4582143,81.9853687 C18.4517367,82.0956932 18.4413725,82.2780531 18.4297128,82.4467847 C18.6499516,82.459115 19.3359307,82.5382891 19.3877516,83.0418879 L15.7596412,83.3306785 C15.7596412,83.3306785 15.4914681,83.4137463 15.5329248,83.8264897 L15.9248203,84.1159292 L15.9325934,84.0490855 C15.9565606,83.9348673 16.0595546,83.7129204 16.5019755,83.6817699 C17.0992113,83.640885 19.5322024,83.6616519 19.5322024,83.6616519 C19.5322024,83.6616519 19.5736591,84.3638348 19.2640293,84.5494395 C18.9550472,84.7350442 18.1913367,84.520236 18.1913367,84.520236 L18.1641307,84.8103245 C18.1641307,84.8103245 19.2879964,84.859646 19.5334979,84.7149263 C19.7796472,84.5702065 19.9441785,84.3352802 19.9033696,83.6266077 L20.2946173,83.6266077 L20.2946173,83.1450737 Z" id="Fill-232" fill="#654B68"></path>
                        <path d="M27.8387681,114.153587 C27.8387681,114.153587 26.7861561,114.76167 26.8671263,116.019369 C26.9480964,117.276419 27.402177,117.88515 27.402177,117.88515 L27.6366666,119.426448 C27.6366666,119.426448 27.9858099,119.791817 28.3168158,119.426448 C28.3168158,119.426448 28.3226457,118.161611 28.7696009,118.330991 L29.7010815,121.29223 C29.7010815,121.29223 30.8346636,122.225445 32.8990785,122.022319 C34.9641412,121.819841 34.8022009,121.414236 34.4783203,120.724383 C34.1544397,120.03518 32.4942278,118.370578 32.1716427,117.896832 C31.8490576,117.422437 27.8387681,114.153587 27.8387681,114.153587" id="Fill-234" fill="#AB6A68"></path>
                        <path d="M31.4419397,103.139504 C31.4419397,103.139504 30.7941785,115.329711 30.7941785,115.654195 C30.7941785,115.978678 32.8994024,118.939917 32.8994024,118.939917 C32.8994024,118.939917 32.8495248,119.751127 32.0035487,119.832248 C31.1588681,119.913369 29.984477,119.710242 29.0128352,118.209829 C28.0411934,116.708767 27.2314919,115.816437 27.4342412,114.397145 C27.6363427,112.977204 27.6758561,104.199917 27.898686,102.666407 C27.898686,102.666407 29.984477,101.616378 31.4419397,103.139504" id="Fill-236" fill="#EFA48F"></path>
                        <path d="M32.3730964,111.72567 C32.3730964,111.72567 31.3204845,112.333752 31.4014546,113.591451 C31.4824248,114.848501 31.9365054,115.457233 31.9365054,115.457233 L32.1709949,116.998531 C32.1709949,116.998531 32.5201382,117.3639 32.8511442,116.998531 C32.8511442,116.998531 32.856974,115.733693 33.3039293,115.903074 L34.2354099,118.864313 C34.2354099,118.864313 35.3689919,119.797528 37.4334069,119.594401 C39.4984696,119.391923 39.3365293,118.986319 39.0126487,118.296466 C38.6887681,117.607263 37.0285561,115.94331 36.705971,115.469563 C36.383386,114.995168 32.3730964,111.72567 32.3730964,111.72567" id="Fill-238" fill="#AB6A68"></path>
                        <path d="M37.0238275,100.723658 C37.0238275,100.723658 35.3286364,112.902183 35.3286364,113.226667 C35.3286364,113.55115 37.4338603,116.51174 37.4338603,116.51174 C37.4338603,116.51174 37.3839827,117.32295 36.5380066,117.404071 C35.6926782,117.485192 34.5189349,117.282714 33.5472931,115.781652 C32.5756513,114.281239 31.7659499,113.388909 31.9680513,111.968968 C32.1708006,110.549676 33.2635737,104.360472 32.8995319,101.09292 C32.8995319,101.09292 35.5663648,99.200531 37.0238275,100.723658" id="Fill-240" fill="#EFA48F"></path>
                        <path d="M32.8994024,101.093115 C33.0030442,102.023735 32.9862024,103.193174 32.9078233,104.420372 C34.061486,104.358071 35.7625069,103.265209 36.7723666,102.537717 C36.9232949,101.445504 37.0236979,100.723853 37.0236979,100.723853 C35.5662352,99.2007257 32.8994024,101.093115 32.8994024,101.093115" id="Fill-242" fill="#EA8A6C"></path>
                        <path d="M31.4419397,103.139504 C29.984477,101.616378 27.898686,102.666407 27.898686,102.666407 C27.8462173,103.025286 27.8047606,103.784578 27.7678382,104.750242 C29.1715367,105.311599 30.5888382,104.797617 31.3752203,104.389416 C31.4160293,103.621038 31.4419397,103.139504 31.4419397,103.139504" id="Fill-244" fill="#EA8A6C"></path>
                        <path d="M27.3403158,80.4833333 C27.3403158,80.4833333 25.3912024,82.110944 25.5220501,85.6802655 C25.6528979,89.249587 26.6135278,101.447581 26.6135278,101.447581 C26.6135278,101.447581 26.8674501,102.512537 28.4868531,102.837021 C30.1062561,103.161504 34.3568651,103.707935 36.3811188,101.447581 C38.4053725,99.1865782 38.5271516,98.9432153 38.4863427,97.8484071 C38.4461815,96.7529499 37.595671,81.5074041 37.4337307,80.5313569 L27.3403158,80.4833333 Z" id="Fill-246" fill="#BC4074"></path>
                        <path d="M23.8579516,80.2988968 C23.8579516,80.2988968 26.2870561,83.4898702 26.6109367,83.8954749 C26.9348173,84.3010796 27.7445188,85.0039115 27.8520472,85.7073923 C27.9602233,86.4102242 28.0683994,89.7900472 25.8549994,89.7361829 C23.6415994,89.6823186 24.5057128,85.5717581 24.5057128,85.5717581 C24.5057128,85.5717581 21.3744352,82.2457994 21.320671,81.7324661 L23.8579516,80.2988968 Z" id="Fill-248" fill="#FFAA83"></path>
                        <path d="M34.1949248,62.614531 C34.1949248,62.614531 35.382271,61.9389558 35.9762681,62.1550619 C36.5702651,62.3711681 37.3799666,62.53341 37.4609367,63.7236165 C37.5419069,64.913174 38.8400203,69.913469 38.648283,70.5786608 C38.2706382,71.8895752 39.4307785,76.054 39.4307785,76.4323481 C39.4307785,76.8106962 40.2139218,79.2715811 37.1636143,79.0282183 L34.1949248,62.614531 Z" id="Fill-250" fill="#A7C4E4"></path>
                        <path d="M26.6242158,64.9264779 C26.6242158,64.9264779 25.1667531,65.6027021 24.478183,66.2516696 C23.7902606,66.9006372 19.4884785,71.9301357 19.0888099,73.5927906 C18.6891412,75.2560944 18.3652606,79.34459 21.0774367,81.9852389 C21.0774367,81.9852389 23.8712307,82.2727316 24.1342218,79.8799882 C24.1342218,79.8799882 22.0827621,75.783056 22.7240457,74.5662419 C23.3653293,73.3494277 24.6809322,71.7678938 24.6809322,71.7678938 C24.6809322,71.7678938 25.7944337,73.7550324 26.1792039,74.9316106 C26.5633263,76.1075398 27.5822546,79.5957404 27.5822546,79.5957404 C27.5822546,79.5957404 34.0061024,81.9488968 37.0019979,79.1907847 C37.0019979,79.1907847 37.4068487,76.9726136 37.4606128,75.7291917 C37.514377,74.4851209 38.2165501,73.7550324 38.108374,72.7277168 C38.0001979,71.7004012 36.8672636,67.0492507 36.8400576,66.0212861 C36.8128516,64.9939705 36.543383,63.0198112 34.1952487,62.6142065 C34.1952487,62.6142065 27.7441949,64.1555044 26.6242158,64.9264779" id="Fill-252" fill="#D1E7F4"></path>
                        <path d="M31.5229099,75.053292 C29.4578472,75.2155339 26.8266412,74.1207257 26.0571009,71.3626136 C26.0571009,71.3626136 25.6205099,72.1095752 25.3089367,72.9558289 C25.6295785,73.5911681 25.9910293,74.3575988 26.17888,74.9319351 C26.5636501,76.1078643 27.5825785,79.5960649 27.5825785,79.5960649 C27.5825785,79.5960649 34.0057785,81.9492212 37.001674,79.1911091 C37.001674,79.1911091 37.4065248,76.9729381 37.4609367,75.7295162 C37.5147009,74.4854454 38.2162263,73.7553569 38.1086979,72.7280413 C38.1054591,72.7027316 38.0996293,72.6657404 38.0957427,72.6358879 C37.9273248,72.7591917 37.7660322,72.8701652 37.63648,72.9441475 C37.069689,73.2686313 33.5879725,74.8910501 31.5229099,75.053292" id="Fill-254" fill="#A7C4E4"></path>
                        <path d="M29.0615469,62.6399056 C29.0615469,62.6399056 27.1266842,63.4647434 26.8384304,63.8768378 C26.5501767,64.2895811 26.3033797,65.1553038 27.0852275,65.8153038 C27.867723,66.4746549 30.8726872,68.6058643 32.2997051,68.111351 C33.726723,67.6161888 34.3582901,67.0386077 34.3310842,66.2689322 C34.3032304,65.4986077 33.5893976,62.6399056 33.5893976,62.6399056 C33.5893976,62.6399056 30.9931707,61.6541239 29.0615469,62.6399056" id="Fill-256" fill="#BC4378"></path>
                        <path d="M36.9769943,55.4746549 C36.9769943,55.4746549 37.4369048,56.0859823 37.6221645,57.1996106 C37.8067764,58.3132389 37.032054,58.9732389 36.9769943,59.6948909 C36.9219346,60.4165428 36.9841197,61.3244484 36.3253466,61.1589617 L35.58366,55.7874572 L36.9769943,55.4746549 Z" id="Fill-258" fill="#915151"></path>
                        <path d="M28.9356869,66.2377168 C28.9356869,66.2377168 28.9402212,66.2409617 28.940869,66.2416106 C29.0354421,66.3104012 29.133254,66.3817876 29.2330093,66.4551209 C29.8159943,66.8594277 31.1361316,67.6583068 32.041054,67.3247375 C33.2251615,66.8866844 33.6248301,66.5355929 33.5743048,65.5783658 C33.5548719,65.1558879 33.5192451,64.7593687 33.5192451,64.5984248 C33.5192451,64.2356519 33.3819197,63.3102242 33.3819197,63.3102242 C33.3819197,63.3102242 33.8483078,63.4198997 35.1107943,62.7884543 C36.3732809,62.1557109 36.5928719,60.6987788 36.6168391,59.6805487 C36.641454,58.6636165 36.6168391,55.7108142 36.6168391,55.7108142 C34.4183376,52.4834985 30.2532331,54.2376578 29.2109854,55.9970088 C28.1674421,57.7570088 29.4027227,61.853292 29.4027227,61.853292 C29.4027227,61.853292 29.5951078,62.3757109 29.4577824,62.8429676 C29.320457,63.3102242 27.8111734,64.5205487 27.5643764,64.5984248 C27.3169316,64.6756519 27.5643764,65.2623186 27.5643764,65.2623186 C27.5643764,65.2623186 28.1577257,65.673764 28.9356869,66.2383658 L28.9356869,66.2377168 Z" id="Fill-260" fill="#F8A185"></path>
                        <path d="M35.0495161,59.847528 C35.0495161,59.847528 35.2917788,60.0967316 35.5120176,59.9546077 C35.7322564,59.8124838 35.7108803,59.5262891 35.7108803,59.5262891 C35.7108803,59.5262891 35.5197907,59.6716578 35.3766355,59.7423953 C35.2328325,59.8124838 35.0495161,59.847528 35.0495161,59.847528" id="Fill-262" fill="#D38462"></path>
                        <path d="M28.6345427,51.708826 C28.6345427,51.708826 25.6159755,49.8378525 24.1889576,53.1923658 C22.7619397,56.5468791 26.8227546,57.7013923 26.8227546,57.7013923 C26.8227546,57.7013923 26.7683427,60.1213923 28.3598919,61.1655811 C28.3598919,61.1655811 27.8112382,62.7055811 28.1675069,63.7783245 C28.5244233,64.8497699 29.1009307,64.6576755 29.1287845,64.3825133 C29.1559904,64.107351 28.799074,63.8055811 28.799074,63.1176755 C28.799074,62.4304189 28.6345427,61.7159056 29.4578472,61.7159056 C29.4578472,61.7159056 29.4306412,61.2207434 29.8691755,61.0831622 C30.3083576,60.9455811 30.7475397,60.0110678 30.7753934,58.7462301 C30.8025994,57.4820413 30.7203337,56.0023953 31.4056651,55.7110088 C31.4056651,55.7110088 32.2568233,55.0347847 33.5743696,55.3923658 C34.8912681,55.7499469 36.9498531,56.1068791 36.9770591,55.4747847 C37.0049128,54.8420413 37.2789158,53.3572035 35.4677755,52.0651091 C33.6566352,50.7730147 29.4306412,50.1973805 28.6345427,51.708826" id="Fill-264" fill="#915151"></path>
                        <path d="M29.855443,58.5540708 C29.855443,58.5540708 29.4939922,57.7993215 28.7963534,57.7571386 C28.0993624,57.7156047 27.9212281,58.7325369 28.0585534,59.3516519 C28.195231,59.970118 28.8481743,60.8663422 29.4305116,60.1628614 C29.8956042,59.5982596 29.855443,58.5540708 29.855443,58.5540708" id="Fill-266" fill="#F8A185"></path>
                        <path d="M32.5173528,63.0974277 L32.3120125,63.7781947 C32.3120125,63.7781947 31.035923,63.0974277 30.932929,62.6230324 C30.932929,62.6230324 31.6940484,63.1999646 32.5173528,63.0974277" id="Fill-268" fill="#EA8A6C"></path>
                        <path d="M33.1195764,59.0160708 C33.1286451,59.3833864 33.3216779,59.6767198 33.5516331,59.6708791 C33.7809406,59.6650383 33.9603704,59.3626195 33.950654,58.9953038 C33.9415854,58.6273392 33.7479048,58.3340059 33.5179496,58.3398466 C33.2886421,58.3456873 33.10986,58.6487552 33.1195764,59.0160708" id="Fill-270" fill="#242D22"></path>
                        <path d="M35.7972269,57.9406018 C35.8069433,58.3079174 35.9442687,58.6031976 36.1042657,58.5986549 C36.2642627,58.5947611 36.3866896,58.2936401 36.3776209,57.9263245 C36.3679045,57.5583599 36.2305791,57.2637286 36.0705821,57.2676224 C35.9105851,57.2721652 35.7875104,57.5732861 35.7972269,57.9406018" id="Fill-272" fill="#242D22"></path>
                        <path d="M33.7046991,57.7428614 C33.7046991,57.7428614 33.0737797,57.4676991 32.1403558,58.4437463 L32.1403558,57.9330088 C32.1403558,57.9330088 32.6980782,57.110118 33.7046991,57.1380236 L33.7046991,57.7428614 Z" id="Fill-274" fill="#744628"></path>
                        <path d="M35.2690424,56.5742006 L35.3377051,57.0693628 C35.3377051,57.0693628 36.1746125,56.2717817 36.6280454,56.6566195 L36.6280454,56.1893628 C36.6280454,56.1893628 35.9686245,55.7084779 35.2690424,56.5742006" id="Fill-276" fill="#744628"></path>
                        <path d="M35.871266,60.1618879 L34.6612481,60.8744543 C34.6055406,60.9069027 34.5660272,61.0503245 34.5822212,61.1658407 C34.6398719,61.5889676 34.816063,62.4235398 35.2882809,62.1464307 C35.7592033,61.8693215 35.9114272,60.8439528 35.958066,60.3585251 C35.9703734,60.2261357 35.9269734,60.1287906 35.871266,60.1618879" id="Fill-278" fill="#FFFFFF"></path>
                        <path d="M39.24228,65.3187788 C39.24228,65.3187788 38.9566173,69.9420236 38.6670681,70.4021416 C38.6670681,70.4021416 38.474683,71.4210206 38.6988084,72.7014336 C38.9229337,73.9818466 39.24228,78.9198407 37.1636143,79.0282183 C37.1636143,79.0282183 37.0308233,79.3254454 37.6507307,79.4876873 C38.2706382,79.6499292 40.4568322,79.2988378 40.7535069,75.4316401 C41.0501815,71.5650914 41.428474,65.7243835 41.428474,65.7243835 C41.428474,65.7243835 42.45388,64.913823 42.0490293,63.7781298 C41.6441785,62.6417876 40.24048,62.614531 40.24048,62.614531 L40.1057457,60.6572448 C40.1057457,60.6572448 40.1886591,59.9985428 39.6477785,59.9985428 C39.1068979,59.9985428 39.3232501,63.074649 39.3232501,63.074649 C39.3232501,63.074649 38.8911934,63.2907552 38.7700621,63.9196047 C38.648283,64.5484543 39.0667367,65.014413 39.24228,65.3187788" id="Fill-280" fill="#FFAA83"></path>
                        <path d="M27.4636496,79.1911091 C27.4636496,79.1911091 27.1235749,79.4876873 27.1235749,79.8394277 C27.1235749,80.1911681 27.3781451,80.7317581 27.8989451,80.9751209 C28.4190973,81.2184838 33.1963361,83.2244425 37.4339899,80.5312271 C37.4339899,80.5312271 38.0253958,79.5759469 37.0278436,79.0450914 C37.0278436,79.0450914 35.949969,80.5837935 33.1969839,80.5227906 C30.443351,80.4611386 27.2906973,79.89459 27.4636496,79.1911091" id="Fill-282" fill="#53446B"></path>
                    </g>
                </g>
            </g>
        </g>
    </g>
</svg>